# This file uses centimeters as units for non-parametric coordinates.

mtllib Cir_tar.mtl
g default
v 4.045086 19.775479 -1.000000
v 1.545085 21.591837 -1.000000
v -1.545086 21.591837 -1.000000
v -4.045086 19.775479 -1.000000
v -5.000001 16.836553 -1.000000
v -4.045086 13.897627 -1.000000
v -1.545085 12.081270 -1.000000
v 1.545085 12.081270 -1.000000
v 4.045085 13.897627 -1.000000
v 5.000000 16.836553 -1.000000
v 4.045086 19.775479 1.000000
v 1.545085 21.591837 1.000000
v -1.545086 21.591837 1.000000
v -4.045086 19.775479 1.000000
v -5.000001 16.836553 1.000000
v -4.045086 13.897627 1.000000
v -1.545085 12.081270 1.000000
v 1.545085 12.081270 1.000000
v 4.045085 13.897627 1.000000
v 5.000000 16.836553 1.000000
v 0.000000 16.836553 -1.000000
v 3.242369 19.192272 1.000000
v 1.238474 20.648188 1.000000
v -1.238475 20.648188 1.000000
v -3.242370 19.192272 1.000000
v -4.007789 16.836553 1.000000
v -3.242369 14.480835 1.000000
v -1.238475 13.024920 1.000000
v 1.238475 13.024920 1.000000
v 3.242369 14.480835 1.000000
v 4.007788 16.836553 1.000000
v 3.242369 19.192272 1.421778
v 1.238474 20.648188 1.421778
v -1.238475 20.648188 1.421778
v -3.242370 19.192272 1.421778
v -4.007789 16.836553 1.421778
v -3.242369 14.480835 1.421778
v -1.238475 13.024920 1.421778
v 1.238475 13.024920 1.421778
v 3.242369 14.480835 1.421778
v 4.007788 16.836553 1.421778
v 2.169997 18.413149 1.421778
v 0.828865 19.387539 1.421778
v -0.828865 19.387534 1.421778
v -2.169997 18.413146 1.421778
v -2.682264 16.836556 1.421778
v -2.169997 15.259958 1.421778
v -0.828865 14.285567 1.421778
v 0.828865 14.285567 1.421778
v 2.169997 15.259959 1.421778
v 2.682264 16.836553 1.421778
v 2.169997 18.413149 1.670471
v 0.828865 19.387539 1.670471
v 0.000000 16.836553 1.670471
v -0.828865 19.387534 1.670471
v -2.169997 18.413146 1.670471
v -2.682264 16.836556 1.670471
v -2.169997 15.259958 1.670471
v -0.828865 14.285567 1.670471
v 0.828865 14.285567 1.670471
v 2.169997 15.259959 1.670471
v 2.682264 16.836553 1.670471
v -1.545085 6.680834 -1.000000
v 1.545085 6.680834 -1.000000
v 1.545085 6.680834 1.000000
v -1.545085 6.680834 1.000000
vt 0.008784 0.946983
vt 0.008784 0.876733
vt 0.247814 0.876733
vt 0.247814 0.946983
vt 0.008784 0.806484
vt 0.247814 0.806484
vt 0.008784 0.990399
vt 0.247814 0.990399
vt 0.008784 0.763068
vt 0.247814 0.763068
vt 0.008784 0.633981
vt 0.247814 0.633981
vt 0.268320 0.817896
vt 0.268320 0.747647
vt 0.507350 0.747647
vt 0.507350 0.817896
vt 0.268320 0.677398
vt 0.507350 0.677398
vt 0.268320 0.861312
vt 0.507350 0.861312
vt 0.268320 0.633981
vt 0.507350 0.633981
vt 0.507350 0.990399
vt 0.268320 0.990399
vt 0.068936 0.230014
vt 0.068936 0.173705
vt 0.119345 0.173705
vt 0.119345 0.230014
vt 0.068936 0.117397
vt 0.119345 0.117397
vt 0.068936 0.264815
vt 0.119345 0.264815
vt 0.068936 0.082596
vt 0.119345 0.082596
vt 0.370167 0.223483
vt 0.370167 0.167174
vt 0.420576 0.167174
vt 0.420576 0.223483
vt 0.370167 0.110866
vt 0.420576 0.110866
vt 0.370167 0.258284
vt 0.420576 0.258284
vt 0.370167 0.076065
vt 0.420576 0.076065
vt 0.118103 0.514641
vt 0.118103 0.476956
vt 0.147825 0.476956
vt 0.147825 0.514641
vt 0.118103 0.439270
vt 0.147825 0.439270
vt 0.118103 0.537932
vt 0.147825 0.537932
vt 0.118103 0.415979
vt 0.147825 0.415979
vt 0.324021 0.516256
vt 0.324021 0.478571
vt 0.353744 0.478571
vt 0.353744 0.516256
vt 0.324021 0.440886
vt 0.353744 0.440886
vt 0.324021 0.539547
vt 0.353744 0.539547
vt 0.324021 0.417595
vt 0.353744 0.417595
vt 0.803866 0.155790
vt 0.863623 0.199206
vt 0.766933 0.269456
vt 0.886448 0.269456
vt 0.730001 0.155790
vt 0.863623 0.339705
vt 0.670244 0.199206
vt 0.803866 0.383121
vt 0.647418 0.269456
vt 0.730001 0.383121
vt 0.670244 0.339705
vt 0.803866 0.512207
vt 0.730001 0.512207
vt 0.286005 0.517015
vt 0.253948 0.540306
vt 0.234135 0.479330
vt 0.214323 0.540306
vt 0.298249 0.479330
vt 0.182266 0.517015
vt 0.286005 0.441644
vt 0.170021 0.479330
vt 0.253948 0.418353
vt 0.182266 0.441644
vt 0.214323 0.418353
vt 0.865110 0.863811
vt 0.805353 0.907228
vt 0.798024 0.884672
vt 0.845923 0.849871
vt 0.731489 0.907228
vt 0.738817 0.884672
vt 0.887936 0.793562
vt 0.864219 0.793562
vt 0.671731 0.863811
vt 0.690918 0.849871
vt 0.865110 0.723313
vt 0.845923 0.737253
vt 0.648906 0.793562
vt 0.672623 0.793562
vt 0.805353 0.679897
vt 0.798024 0.702453
vt 0.671731 0.723313
vt 0.690918 0.737253
vt 0.731489 0.679897
vt 0.738817 0.702453
vt 0.731489 0.550810
vt 0.805353 0.550810
vt 0.315337 0.221640
vt 0.267438 0.256441
vt 0.257647 0.226308
vt 0.289704 0.203017
vt 0.208232 0.256441
vt 0.218023 0.226308
vt 0.333633 0.165332
vt 0.301949 0.165332
vt 0.160333 0.221640
vt 0.185966 0.203017
vt 0.315337 0.109023
vt 0.289704 0.127646
vt 0.142037 0.165332
vt 0.173721 0.165332
vt 0.267438 0.074222
vt 0.257647 0.104356
vt 0.160333 0.109023
vt 0.185966 0.127646
vt 0.208232 0.074222
vt 0.218023 0.104356
vt 0.974611 0.976960
vt 0.900746 0.976960
vt 0.900746 0.737931
vt 0.974611 0.737931
vt 0.911886 0.237672
vt 0.985750 0.237672
vt 0.985750 0.476702
vt 0.911886 0.476702
vt 0.268381 0.319069
vt 0.209174 0.319069
vt 0.209174 0.268660
vt 0.268381 0.268660
vt 0.264001 0.057822
vt 0.204794 0.057822
vt 0.204794 0.007413
vt 0.264001 0.007413
vt 0.252550 0.586308
vt 0.212925 0.586308
vt 0.212925 0.556585
vt 0.252550 0.556585
vt 0.215440 0.371535
vt 0.255064 0.371535
vt 0.255064 0.401257
vt 0.215440 0.401257
vn 0.587785 0.809017 0.000000
vn 0.587785 0.809017 0.000000
vn 0.587785 0.809017 0.000000
vn 0.587785 0.809017 0.000000
vn 0.000000 1.000000 0.000000
vn 0.000000 1.000000 0.000000
vn 0.000000 1.000000 0.000000
vn 0.000000 1.000000 0.000000
vn -0.587786 0.809017 0.000000
vn -0.587786 0.809017 0.000000
vn -0.587786 0.809017 0.000000
vn -0.587786 0.809017 0.000000
vn -0.951057 0.309017 0.000000
vn -0.951057 0.309017 0.000000
vn -0.951057 0.309017 0.000000
vn -0.951057 0.309017 0.000000
vn -0.951057 -0.309017 0.000000
vn -0.951057 -0.309017 0.000000
vn -0.951057 -0.309017 0.000000
vn -0.951057 -0.309017 0.000000
vn -0.587785 -0.809017 0.000000
vn -0.587785 -0.809017 0.000000
vn -0.587785 -0.809017 0.000000
vn -0.587785 -0.809017 0.000000
vn 0.000000 -1.000000 0.000000
vn 0.000000 -1.000000 0.000000
vn 0.000000 -1.000000 0.000000
vn 0.000000 -1.000000 0.000000
vn 0.587786 -0.809017 0.000000
vn 0.587786 -0.809017 0.000000
vn 0.587786 -0.809017 0.000000
vn 0.587786 -0.809017 0.000000
vn 0.951057 -0.309017 0.000000
vn 0.951057 -0.309017 0.000000
vn 0.951057 -0.309017 0.000000
vn 0.951057 -0.309017 0.000000
vn 0.951057 0.309017 0.000000
vn 0.951057 0.309017 0.000000
vn 0.951057 0.309017 0.000000
vn 0.951057 0.309017 0.000000
vn 0.000000 -0.000000 -1.000000
vn 0.000000 -0.000000 -1.000000
vn 0.000000 -0.000000 -1.000000
vn 0.000000 -0.000000 -1.000000
vn 0.000000 -0.000000 -1.000000
vn 0.000000 -0.000000 -1.000000
vn 0.000000 -0.000000 -1.000000
vn 0.000000 -0.000000 -1.000000
vn 0.000000 -0.000000 -1.000000
vn 0.000000 -0.000000 -1.000000
vn 0.000000 -0.000000 -1.000000
vn -0.000000 -0.000000 1.000000
vn -0.000000 -0.000000 1.000000
vn -0.000000 0.000000 1.000000
vn 0.000000 -0.000000 1.000000
vn 0.000000 -0.000000 1.000000
vn 0.000000 0.000000 1.000000
vn 0.000000 0.000000 1.000000
vn 0.000000 0.000000 1.000000
vn -0.000000 0.000000 1.000000
vn -0.000000 0.000000 1.000000
vn -0.000000 -0.000000 1.000000
vn 0.000000 0.000000 1.000000
vn 0.000000 -0.000000 1.000000
vn 0.000000 -0.000000 1.000000
vn 0.000000 0.000000 1.000000
vn 0.000000 0.000000 1.000000
vn 0.000000 0.000000 1.000000
vn 0.000000 0.000000 1.000000
vn 0.000000 0.000000 1.000000
vn 0.000000 0.000000 1.000000
vn 0.000000 0.000000 1.000000
vn 0.000000 -0.000000 1.000000
vn 0.000000 -0.000000 1.000000
vn 0.000000 -0.000000 1.000000
vn 0.000000 -0.000000 1.000000
vn 0.000000 -0.000000 1.000000
vn 0.000000 -0.000000 1.000000
vn 0.000000 0.000000 1.000000
vn 0.000000 0.000000 1.000000
vn 0.000000 0.000000 1.000000
vn 0.000000 0.000000 1.000000
vn 0.587786 0.809017 0.000000
vn 0.587786 0.809017 0.000000
vn 0.587786 0.809017 0.000000
vn 0.587786 0.809017 0.000000
vn 0.000000 1.000000 0.000000
vn 0.000000 1.000000 0.000000
vn 0.000000 1.000000 0.000000
vn 0.000000 1.000000 0.000000
vn -0.587786 0.809017 0.000000
vn -0.587786 0.809017 0.000000
vn -0.587786 0.809017 0.000000
vn -0.587786 0.809017 0.000000
vn -0.951057 0.309017 0.000000
vn -0.951057 0.309017 0.000000
vn -0.951057 0.309017 0.000000
vn -0.951057 0.309017 0.000000
vn -0.951057 -0.309017 0.000000
vn -0.951057 -0.309017 0.000000
vn -0.951057 -0.309017 0.000000
vn -0.951057 -0.309017 0.000000
vn -0.587785 -0.809017 0.000000
vn -0.587785 -0.809017 0.000000
vn -0.587785 -0.809017 0.000000
vn -0.587785 -0.809017 0.000000
vn 0.000000 -1.000000 0.000000
vn 0.000000 -1.000000 0.000000
vn 0.000000 -1.000000 0.000000
vn 0.000000 -1.000000 0.000000
vn 0.587786 -0.809017 0.000000
vn 0.587786 -0.809017 0.000000
vn 0.587786 -0.809017 0.000000
vn 0.587786 -0.809017 0.000000
vn 0.951056 -0.309017 0.000000
vn 0.951056 -0.309017 0.000000
vn 0.951056 -0.309017 0.000000
vn 0.951056 -0.309017 0.000000
vn 0.951057 0.309017 0.000000
vn 0.951057 0.309017 0.000000
vn 0.951057 0.309017 0.000000
vn 0.951057 0.309017 0.000000
vn 0.000000 0.000000 1.000000
vn 0.000000 -0.000000 1.000000
vn 0.000000 -0.000000 1.000000
vn 0.000000 -0.000000 1.000000
vn 0.000000 0.000000 1.000000
vn 0.000000 0.000000 1.000000
vn 0.000000 -0.000000 1.000000
vn 0.000000 -0.000000 1.000000
vn 0.000000 -0.000000 1.000000
vn 0.000000 -0.000000 1.000000
vn 0.000000 0.000000 1.000000
vn 0.000000 0.000000 1.000000
vn 0.000000 0.000000 1.000000
vn 0.000000 0.000000 1.000000
vn 0.000000 -0.000000 1.000000
vn 0.000000 -0.000000 1.000000
vn 0.000000 0.000000 1.000000
vn 0.000000 0.000000 1.000000
vn 0.000000 0.000000 1.000000
vn 0.000000 0.000000 1.000000
vn 0.587786 0.809017 0.000000
vn 0.587786 0.809017 0.000000
vn 0.587786 0.809017 0.000000
vn 0.587786 0.809017 0.000000
vn -0.000003 1.000000 0.000000
vn -0.000003 1.000000 0.000000
vn -0.000003 1.000000 0.000000
vn -0.000003 1.000000 0.000000
vn -0.587785 0.809017 0.000000
vn -0.587785 0.809017 0.000000
vn -0.587785 0.809017 0.000000
vn -0.587785 0.809017 0.000000
vn -0.951056 0.309018 0.000000
vn -0.951056 0.309018 0.000000
vn -0.951056 0.309018 0.000000
vn -0.951056 0.309018 0.000000
vn -0.951057 -0.309017 0.000000
vn -0.951057 -0.309017 0.000000
vn -0.951057 -0.309017 0.000000
vn -0.951057 -0.309017 0.000000
vn -0.587786 -0.809017 0.000000
vn -0.587786 -0.809017 0.000000
vn -0.587786 -0.809017 0.000000
vn -0.587786 -0.809017 0.000000
vn 0.000000 -1.000000 0.000000
vn 0.000000 -1.000000 0.000000
vn 0.000000 -1.000000 0.000000
vn 0.000000 -1.000000 0.000000
vn 0.587786 -0.809016 0.000000
vn 0.587786 -0.809016 0.000000
vn 0.587786 -0.809016 0.000000
vn 0.587786 -0.809016 0.000000
vn 0.951056 -0.309017 0.000000
vn 0.951056 -0.309017 0.000000
vn 0.951056 -0.309017 0.000000
vn 0.951056 -0.309017 0.000000
vn 0.951057 0.309017 0.000000
vn 0.951057 0.309017 0.000000
vn 0.951057 0.309017 0.000000
vn 0.951057 0.309017 0.000000
vn 0.000000 -0.000000 -1.000000
vn 0.000000 -0.000000 -1.000000
vn 1.000000 0.000000 0.000000
vn 1.000000 0.000000 0.000000
vn 1.000000 0.000000 0.000000
vn 1.000000 0.000000 0.000000
vn 0.000000 0.000000 1.000000
vn 0.000000 0.000000 1.000000
vn -1.000000 0.000000 0.000000
vn -1.000000 0.000000 0.000000
vn -1.000000 0.000000 0.000000
vn -1.000000 0.000000 0.000000
s off
g pCylinder1
usemtl initialShadingGroup
f 1/17/1 2/21/2 12/22/3 11/18/4
f 2/131/5 3/132/6 13/133/7 12/134/8
f 3/7/9 4/1/10 14/4/11 13/8/12
f 4/1/13 5/2/14 15/3/15 14/4/16
f 5/2/17 6/5/18 16/6/19 15/3/20
f 6/5/21 7/9/22 17/10/23 16/6/24
f 63/135/25 64/136/26 65/137/27 66/138/28
f 8/19/29 9/13/30 19/16/31 18/20/32
f 9/13/33 10/14/34 20/15/35 19/16/36
f 10/14/37 1/17/38 11/18/39 20/15/40
s 1
f 2/65/41 1/66/42 21/67/43
f 3/69/44 2/65/41 21/67/43
f 4/71/45 3/69/44 21/67/43
f 5/73/46 4/71/45 21/67/43
f 6/75/47 5/73/46 21/67/43
f 7/74/48 6/75/47 21/67/43
f 8/72/49 7/74/48 21/67/43
f 9/70/50 8/72/49 21/67/43
f 10/68/51 9/70/50 21/67/43
f 1/66/42 10/68/51 21/67/43
s 2
f 52/78/52 53/79/53 54/80/54
f 53/79/53 55/81/55 54/80/54
f 55/81/55 56/83/56 54/80/54
f 56/83/56 57/85/57 54/80/54
f 57/85/57 58/87/58 54/80/54
f 58/87/58 59/88/59 54/80/54
f 59/88/59 60/86/60 54/80/54
f 60/86/60 61/84/61 54/80/54
f 61/84/61 62/82/62 54/80/54
f 62/82/62 52/78/52 54/80/54
s 3
f 11/89/63 12/90/64 23/91/65 22/92/66
f 12/90/64 13/93/67 24/94/68 23/91/65
f 13/93/67 14/97/69 25/98/70 24/94/68
f 14/97/69 15/101/71 26/102/72 25/98/70
f 15/101/71 16/105/73 27/106/74 26/102/72
f 16/105/73 17/107/75 28/108/76 27/106/74
f 17/107/75 18/103/77 29/104/78 28/108/76
f 18/103/77 19/99/79 30/100/80 29/104/78
f 19/99/79 20/95/81 31/96/82 30/100/80
f 20/95/81 11/89/63 22/92/66 31/96/82
s off
f 22/39/83 23/43/84 33/44/85 32/40/86
f 23/139/87 24/140/88 34/141/89 33/142/90
f 24/31/91 25/25/92 35/28/93 34/32/94
f 25/25/95 26/26/96 36/27/97 35/28/98
f 26/26/99 27/29/100 37/30/101 36/27/102
f 27/29/103 28/33/104 38/34/105 37/30/106
f 28/143/107 29/144/108 39/145/109 38/146/110
f 29/41/111 30/35/112 40/38/113 39/42/114
f 30/35/115 31/36/116 41/37/117 40/38/118
f 31/36/119 22/39/120 32/40/121 41/37/122
s 4
f 32/111/123 33/112/124 43/113/125 42/114/126
f 33/112/124 34/115/127 44/116/128 43/113/125
f 34/115/127 35/119/129 45/120/130 44/116/128
f 35/119/129 36/123/131 46/124/132 45/120/130
f 36/123/131 37/127/133 47/128/134 46/124/132
f 37/127/133 38/129/135 48/130/136 47/128/134
f 38/129/135 39/125/137 49/126/138 48/130/136
f 39/125/137 40/121/139 50/122/140 49/126/138
f 40/121/139 41/117/141 51/118/142 50/122/140
f 41/117/141 32/111/123 42/114/126 51/118/142
s off
f 42/59/143 43/63/144 53/64/145 52/60/146
f 43/147/147 44/148/148 55/149/149 53/150/150
f 44/51/151 45/45/152 56/48/153 55/52/154
f 45/45/155 46/46/156 57/47/157 56/48/158
f 46/46/159 47/49/160 58/50/161 57/47/162
f 47/49/163 48/53/164 59/54/165 58/50/166
f 48/151/167 49/152/168 60/153/169 59/154/170
f 49/61/171 50/55/172 61/58/173 60/62/174
f 50/55/175 51/56/176 62/57/177 61/58/178
f 51/56/179 42/59/180 52/60/181 62/57/182
s 1
f 7/74/48 8/72/49 64/76/183 63/77/184
s off
f 8/19/185 18/20/186 65/23/187 64/24/188
s 3
f 18/103/77 17/107/75 66/109/189 65/110/190
s off
f 17/10/191 7/9/192 63/11/193 66/12/194
